<mxfile host="app.diagrams.net" agent="Mozilla/5.0 (Windows NT 10.0; Win64; x64; rv:131.0) Gecko/20100101 Firefox/131.0" version="24.7.17">
  <diagram name="Page-1" id="5f0bae14-7c28-e335-631c-24af17079c00">
    <mxGraphModel dx="2600" dy="1620" grid="1" gridSize="10" guides="1" tooltips="1" connect="1" arrows="1" fold="1" page="1" pageScale="1" pageWidth="1100" pageHeight="850" background="none" math="0" shadow="0">
      <root>
        <mxCell id="0" />
        <mxCell id="1" parent="0" />
        <mxCell id="vrmnOyTj4JUYon2IXKfR-25" value="" style="group;fillColor=default;" vertex="1" connectable="0" parent="1">
          <mxGeometry x="-30" y="-70" width="910" height="340" as="geometry" />
        </mxCell>
        <mxCell id="vrmnOyTj4JUYon2IXKfR-4" value="" style="group" vertex="1" connectable="0" parent="vrmnOyTj4JUYon2IXKfR-25">
          <mxGeometry x="27.02970297029703" y="170" width="54.05940594059406" height="121.42857142857143" as="geometry" />
        </mxCell>
        <mxCell id="vrmnOyTj4JUYon2IXKfR-2" value="" style="shape=datastore;whiteSpace=wrap;html=1;" vertex="1" parent="vrmnOyTj4JUYon2IXKfR-4">
          <mxGeometry width="54.05940594059406" height="72.85714285714286" as="geometry" />
        </mxCell>
        <mxCell id="vrmnOyTj4JUYon2IXKfR-3" value="&lt;div&gt;database&lt;/div&gt;" style="text;html=1;align=center;verticalAlign=middle;whiteSpace=wrap;rounded=0;" vertex="1" parent="vrmnOyTj4JUYon2IXKfR-4">
          <mxGeometry y="85" width="54.05940594059406" height="36.42857142857143" as="geometry" />
        </mxCell>
        <mxCell id="vrmnOyTj4JUYon2IXKfR-6" value="" style="sketch=0;outlineConnect=0;fontColor=#232F3E;gradientColor=none;fillColor=#3D392F;strokeColor=none;dashed=0;verticalLabelPosition=bottom;verticalAlign=top;align=center;html=1;fontSize=12;fontStyle=0;aspect=fixed;pointerEvents=1;shape=mxgraph.aws4.client;" vertex="1" parent="vrmnOyTj4JUYon2IXKfR-25">
          <mxGeometry x="693.7623762376239" y="121.42857142857143" width="96.68454545454547" height="94.20779220779222" as="geometry" />
        </mxCell>
        <mxCell id="vrmnOyTj4JUYon2IXKfR-8" value="" style="image;html=1;image=img/lib/clip_art/computers/Server_Rack_128x128.png" vertex="1" parent="vrmnOyTj4JUYon2IXKfR-25">
          <mxGeometry x="225.24752475247527" y="121.42857142857143" width="126.13861386138615" height="170" as="geometry" />
        </mxCell>
        <mxCell id="vrmnOyTj4JUYon2IXKfR-10" value="" style="shape=flexArrow;endArrow=classic;startArrow=classic;html=1;rounded=0;" edge="1" parent="vrmnOyTj4JUYon2IXKfR-25">
          <mxGeometry width="100" height="100" relative="1" as="geometry">
            <mxPoint x="99.10891089108914" y="218.57142857142858" as="sourcePoint" />
            <mxPoint x="225.24752475247527" y="218.57142857142858" as="targetPoint" />
          </mxGeometry>
        </mxCell>
        <mxCell id="vrmnOyTj4JUYon2IXKfR-19" value="" style="group" vertex="1" connectable="0" parent="vrmnOyTj4JUYon2IXKfR-25">
          <mxGeometry x="351.3861386138614" y="24.285714285714285" width="315.34653465346537" height="97.14285714285714" as="geometry" />
        </mxCell>
        <mxCell id="vrmnOyTj4JUYon2IXKfR-5" value="" style="verticalLabelPosition=bottom;html=1;verticalAlign=top;align=center;strokeColor=none;fillColor=#00BEF2;shape=mxgraph.azure.code_file;pointerEvents=1;" vertex="1" parent="vrmnOyTj4JUYon2IXKfR-19">
          <mxGeometry x="137.9641089108911" width="46.80925123762377" height="67.93206793206794" as="geometry" />
        </mxCell>
        <mxCell id="vrmnOyTj4JUYon2IXKfR-11" value="" style="endArrow=classic;html=1;rounded=0;" edge="1" parent="vrmnOyTj4JUYon2IXKfR-19">
          <mxGeometry relative="1" as="geometry">
            <mxPoint y="97.14285714285714" as="sourcePoint" />
            <mxPoint x="315.34653465346537" y="97.14285714285714" as="targetPoint" />
          </mxGeometry>
        </mxCell>
        <mxCell id="vrmnOyTj4JUYon2IXKfR-12" value="index.html" style="edgeLabel;resizable=0;html=1;;align=center;verticalAlign=middle;" connectable="0" vertex="1" parent="vrmnOyTj4JUYon2IXKfR-11">
          <mxGeometry relative="1" as="geometry">
            <mxPoint y="-11" as="offset" />
          </mxGeometry>
        </mxCell>
        <mxCell id="vrmnOyTj4JUYon2IXKfR-13" value="server" style="edgeLabel;resizable=0;html=1;;align=left;verticalAlign=bottom;" connectable="0" vertex="1" parent="vrmnOyTj4JUYon2IXKfR-11">
          <mxGeometry x="-1" relative="1" as="geometry" />
        </mxCell>
        <mxCell id="vrmnOyTj4JUYon2IXKfR-14" value="client" style="edgeLabel;resizable=0;html=1;;align=right;verticalAlign=bottom;" connectable="0" vertex="1" parent="vrmnOyTj4JUYon2IXKfR-11">
          <mxGeometry x="1" relative="1" as="geometry" />
        </mxCell>
        <mxCell id="vrmnOyTj4JUYon2IXKfR-20" value="" style="shape=flexArrow;endArrow=classic;html=1;rounded=0;" edge="1" parent="vrmnOyTj4JUYon2IXKfR-25">
          <mxGeometry width="50" height="50" relative="1" as="geometry">
            <mxPoint x="666.7326732673268" y="145.71428571428572" as="sourcePoint" />
            <mxPoint x="351.3861386138614" y="145.71428571428572" as="targetPoint" />
          </mxGeometry>
        </mxCell>
        <mxCell id="vrmnOyTj4JUYon2IXKfR-22" value="HTTP/2&#xa;protocol" style="sketch=0;outlineConnect=0;fontColor=#232F3E;gradientColor=none;strokeColor=#232F3E;fillColor=#ffffff;dashed=0;verticalLabelPosition=bottom;verticalAlign=top;align=center;html=1;fontSize=12;fontStyle=0;aspect=fixed;shape=mxgraph.aws4.resourceIcon;resIcon=mxgraph.aws4.http2_protocol;" vertex="1" parent="vrmnOyTj4JUYon2IXKfR-25">
          <mxGeometry x="482.02970297029714" y="160.28571428571428" width="45.584415584415595" height="45.584415584415595" as="geometry" />
        </mxCell>
        <mxCell id="vrmnOyTj4JUYon2IXKfR-23" value="" style="shape=flexArrow;endArrow=classic;html=1;rounded=0;" edge="1" parent="vrmnOyTj4JUYon2IXKfR-25">
          <mxGeometry width="50" height="50" relative="1" as="geometry">
            <mxPoint x="351.3861386138614" y="233.14285714285717" as="sourcePoint" />
            <mxPoint x="666.7326732673268" y="233.14285714285717" as="targetPoint" />
          </mxGeometry>
        </mxCell>
      </root>
    </mxGraphModel>
  </diagram>
</mxfile>
